<mxfile host="app.diagrams.net" agent="Mozilla/5.0 (Macintosh; Intel Mac OS X 10_15_7) AppleWebKit/537.36 (KHTML, like Gecko) Chrome/130.0.0.0 Safari/537.36" version="24.8.3">
  <diagram name="Page-1" id="ZzB7i4NtdFD34NnYMOvR">
    <mxGraphModel dx="672" dy="684" grid="1" gridSize="10" guides="1" tooltips="1" connect="1" arrows="1" fold="1" page="1" pageScale="1" pageWidth="850" pageHeight="1100" math="0" shadow="0">
      <root>
        <mxCell id="0" />
        <mxCell id="1" parent="0" />
        <mxCell id="f07_9i_d-xM3dZHE4S6k-22" value="AWS Cloud" style="points=[[0,0],[0.25,0],[0.5,0],[0.75,0],[1,0],[1,0.25],[1,0.5],[1,0.75],[1,1],[0.75,1],[0.5,1],[0.25,1],[0,1],[0,0.75],[0,0.5],[0,0.25]];outlineConnect=0;gradientColor=none;html=1;whiteSpace=wrap;fontSize=12;fontStyle=0;container=1;pointerEvents=0;collapsible=0;recursiveResize=0;shape=mxgraph.aws4.group;grIcon=mxgraph.aws4.group_aws_cloud_alt;strokeColor=#232F3E;fillColor=none;verticalAlign=top;align=left;spacingLeft=30;fontColor=#232F3E;dashed=0;" parent="1" vertex="1">
          <mxGeometry x="200" y="80" width="1240" height="640" as="geometry" />
        </mxCell>
        <mxCell id="f07_9i_d-xM3dZHE4S6k-21" value="" style="fillColor=none;strokeColor=#5A6C86;dashed=1;verticalAlign=top;fontStyle=0;fontColor=#5A6C86;whiteSpace=wrap;html=1;rounded=0;perimeterSpacing=0;shadow=0;glass=0;" parent="f07_9i_d-xM3dZHE4S6k-22" vertex="1">
          <mxGeometry x="79.25" y="320" width="801.5" height="240" as="geometry" />
        </mxCell>
        <mxCell id="f07_9i_d-xM3dZHE4S6k-30" style="edgeStyle=orthogonalEdgeStyle;rounded=0;orthogonalLoop=1;jettySize=auto;html=1;" parent="f07_9i_d-xM3dZHE4S6k-22" source="f07_9i_d-xM3dZHE4S6k-24" target="f07_9i_d-xM3dZHE4S6k-25" edge="1">
          <mxGeometry relative="1" as="geometry" />
        </mxCell>
        <mxCell id="f07_9i_d-xM3dZHE4S6k-24" value="Source" style="fillColor=none;strokeColor=#5A6C86;dashed=1;verticalAlign=top;fontStyle=0;fontColor=#5A6C86;whiteSpace=wrap;html=1;rounded=1;" parent="f07_9i_d-xM3dZHE4S6k-22" vertex="1">
          <mxGeometry x="201.25" y="360" width="160" height="160" as="geometry" />
        </mxCell>
        <mxCell id="jq4fsFTrlgq1_qY16uEr-11" style="edgeStyle=orthogonalEdgeStyle;rounded=1;orthogonalLoop=1;jettySize=auto;html=1;curved=0;" edge="1" parent="f07_9i_d-xM3dZHE4S6k-22" source="f07_9i_d-xM3dZHE4S6k-27" target="jq4fsFTrlgq1_qY16uEr-10">
          <mxGeometry relative="1" as="geometry">
            <Array as="points">
              <mxPoint x="380" y="420" />
              <mxPoint x="380" y="280" />
              <mxPoint x="300" y="280" />
              <mxPoint x="300" y="200" />
            </Array>
          </mxGeometry>
        </mxCell>
        <mxCell id="jq4fsFTrlgq1_qY16uEr-14" value="Push artifact" style="edgeLabel;html=1;align=center;verticalAlign=middle;resizable=0;points=[];" vertex="1" connectable="0" parent="jq4fsFTrlgq1_qY16uEr-11">
          <mxGeometry x="0.167" y="-1" relative="1" as="geometry">
            <mxPoint x="-34" y="-39" as="offset" />
          </mxGeometry>
        </mxCell>
        <mxCell id="f07_9i_d-xM3dZHE4S6k-27" value="CodeArtifact" style="sketch=0;points=[[0,0,0],[0.25,0,0],[0.5,0,0],[0.75,0,0],[1,0,0],[0,1,0],[0.25,1,0],[0.5,1,0],[0.75,1,0],[1,1,0],[0,0.25,0],[0,0.5,0],[0,0.75,0],[1,0.25,0],[1,0.5,0],[1,0.75,0]];outlineConnect=0;fontColor=#232F3E;fillColor=#C925D1;strokeColor=#ffffff;dashed=0;verticalLabelPosition=bottom;verticalAlign=top;align=center;html=1;fontSize=12;fontStyle=0;aspect=fixed;shape=mxgraph.aws4.resourceIcon;resIcon=mxgraph.aws4.codeartifact;" parent="f07_9i_d-xM3dZHE4S6k-22" vertex="1">
          <mxGeometry x="241.25" y="400" width="80" height="80" as="geometry" />
        </mxCell>
        <mxCell id="f07_9i_d-xM3dZHE4S6k-26" value="Deploy" style="fillColor=none;strokeColor=#5A6C86;dashed=1;verticalAlign=top;fontStyle=0;fontColor=#5A6C86;whiteSpace=wrap;html=1;rounded=1;" parent="f07_9i_d-xM3dZHE4S6k-22" vertex="1">
          <mxGeometry x="681.25" y="360" width="159" height="160" as="geometry" />
        </mxCell>
        <mxCell id="jq4fsFTrlgq1_qY16uEr-7" style="edgeStyle=orthogonalEdgeStyle;rounded=1;orthogonalLoop=1;jettySize=auto;html=1;curved=0;" edge="1" parent="f07_9i_d-xM3dZHE4S6k-22" source="f07_9i_d-xM3dZHE4S6k-13" target="jq4fsFTrlgq1_qY16uEr-6">
          <mxGeometry relative="1" as="geometry">
            <Array as="points">
              <mxPoint x="1140" y="440" />
              <mxPoint x="1140" y="160" />
            </Array>
          </mxGeometry>
        </mxCell>
        <mxCell id="jq4fsFTrlgq1_qY16uEr-18" value="Update service" style="edgeLabel;html=1;align=center;verticalAlign=middle;resizable=0;points=[];" vertex="1" connectable="0" parent="jq4fsFTrlgq1_qY16uEr-7">
          <mxGeometry x="0.1801" y="2" relative="1" as="geometry">
            <mxPoint x="2" y="-89" as="offset" />
          </mxGeometry>
        </mxCell>
        <mxCell id="f07_9i_d-xM3dZHE4S6k-13" value="CodeDeploy" style="sketch=0;points=[[0,0,0],[0.25,0,0],[0.5,0,0],[0.75,0,0],[1,0,0],[0,1,0],[0.25,1,0],[0.5,1,0],[0.75,1,0],[1,1,0],[0,0.25,0],[0,0.5,0],[0,0.75,0],[1,0.25,0],[1,0.5,0],[1,0.75,0]];outlineConnect=0;fontColor=#232F3E;fillColor=#C925D1;strokeColor=#ffffff;dashed=0;verticalLabelPosition=bottom;verticalAlign=top;align=center;html=1;fontSize=12;fontStyle=0;aspect=fixed;shape=mxgraph.aws4.resourceIcon;resIcon=mxgraph.aws4.codedeploy;" parent="f07_9i_d-xM3dZHE4S6k-22" vertex="1">
          <mxGeometry x="721.75" y="400" width="80" height="80" as="geometry" />
        </mxCell>
        <mxCell id="f07_9i_d-xM3dZHE4S6k-32" style="edgeStyle=orthogonalEdgeStyle;rounded=0;orthogonalLoop=1;jettySize=auto;html=1;" parent="f07_9i_d-xM3dZHE4S6k-22" source="f07_9i_d-xM3dZHE4S6k-25" target="f07_9i_d-xM3dZHE4S6k-26" edge="1">
          <mxGeometry relative="1" as="geometry" />
        </mxCell>
        <mxCell id="f07_9i_d-xM3dZHE4S6k-25" value="Build" style="fillColor=none;strokeColor=#5A6C86;dashed=1;verticalAlign=top;fontStyle=0;fontColor=#5A6C86;whiteSpace=wrap;html=1;rounded=1;" parent="f07_9i_d-xM3dZHE4S6k-22" vertex="1">
          <mxGeometry x="441.25" y="360" width="160" height="160" as="geometry" />
        </mxCell>
        <mxCell id="jq4fsFTrlgq1_qY16uEr-3" style="edgeStyle=orthogonalEdgeStyle;rounded=1;orthogonalLoop=1;jettySize=auto;html=1;curved=0;" edge="1" parent="f07_9i_d-xM3dZHE4S6k-22" source="f07_9i_d-xM3dZHE4S6k-12" target="jq4fsFTrlgq1_qY16uEr-2">
          <mxGeometry relative="1" as="geometry">
            <Array as="points">
              <mxPoint x="620" y="420" />
              <mxPoint x="620" y="200" />
            </Array>
          </mxGeometry>
        </mxCell>
        <mxCell id="jq4fsFTrlgq1_qY16uEr-17" value="Push image" style="edgeLabel;html=1;align=center;verticalAlign=middle;resizable=0;points=[];" vertex="1" connectable="0" parent="jq4fsFTrlgq1_qY16uEr-3">
          <mxGeometry x="0.1807" y="-1" relative="1" as="geometry">
            <mxPoint x="-1" y="21" as="offset" />
          </mxGeometry>
        </mxCell>
        <mxCell id="f07_9i_d-xM3dZHE4S6k-12" value="CodeBuild" style="sketch=0;points=[[0,0,0],[0.25,0,0],[0.5,0,0],[0.75,0,0],[1,0,0],[0,1,0],[0.25,1,0],[0.5,1,0],[0.75,1,0],[1,1,0],[0,0.25,0],[0,0.5,0],[0,0.75,0],[1,0.25,0],[1,0.5,0],[1,0.75,0]];outlineConnect=0;fontColor=#232F3E;fillColor=#C925D1;strokeColor=#ffffff;dashed=0;verticalLabelPosition=bottom;verticalAlign=top;align=center;html=1;fontSize=12;fontStyle=0;aspect=fixed;shape=mxgraph.aws4.resourceIcon;resIcon=mxgraph.aws4.codebuild;" parent="f07_9i_d-xM3dZHE4S6k-22" vertex="1">
          <mxGeometry x="481.25" y="400" width="80" height="80" as="geometry" />
        </mxCell>
        <mxCell id="f07_9i_d-xM3dZHE4S6k-14" value="CodePipeline" style="sketch=0;points=[[0,0,0],[0.25,0,0],[0.5,0,0],[0.75,0,0],[1,0,0],[0,1,0],[0.25,1,0],[0.5,1,0],[0.75,1,0],[1,1,0],[0,0.25,0],[0,0.5,0],[0,0.75,0],[1,0.25,0],[1,0.5,0],[1,0.75,0]];outlineConnect=0;fontColor=#232F3E;fillColor=#C925D1;strokeColor=#ffffff;dashed=0;verticalLabelPosition=bottom;verticalAlign=top;align=center;html=1;fontSize=12;fontStyle=0;aspect=fixed;shape=mxgraph.aws4.resourceIcon;resIcon=mxgraph.aws4.codepipeline;" parent="f07_9i_d-xM3dZHE4S6k-22" vertex="1">
          <mxGeometry x="79.25" y="320" width="80" height="80" as="geometry" />
        </mxCell>
        <mxCell id="jq4fsFTrlgq1_qY16uEr-1" value="" style="fillColor=none;strokeColor=#5A6C86;dashed=1;verticalAlign=top;fontStyle=0;fontColor=#5A6C86;whiteSpace=wrap;html=1;" vertex="1" parent="f07_9i_d-xM3dZHE4S6k-22">
          <mxGeometry x="880.75" y="80" width="280" height="160" as="geometry" />
        </mxCell>
        <mxCell id="jq4fsFTrlgq1_qY16uEr-2" value="Elastic Container Registry" style="sketch=0;points=[[0,0,0],[0.25,0,0],[0.5,0,0],[0.75,0,0],[1,0,0],[0,1,0],[0.25,1,0],[0.5,1,0],[0.75,1,0],[1,1,0],[0,0.25,0],[0,0.5,0],[0,0.75,0],[1,0.25,0],[1,0.5,0],[1,0.75,0]];outlineConnect=0;fontColor=#232F3E;fillColor=#ED7100;strokeColor=#ffffff;dashed=0;verticalLabelPosition=bottom;verticalAlign=top;align=center;html=1;fontSize=12;fontStyle=0;aspect=fixed;shape=mxgraph.aws4.resourceIcon;resIcon=mxgraph.aws4.ecr;" vertex="1" parent="f07_9i_d-xM3dZHE4S6k-22">
          <mxGeometry x="680" y="160" width="80" height="80" as="geometry" />
        </mxCell>
        <mxCell id="jq4fsFTrlgq1_qY16uEr-12" style="edgeStyle=orthogonalEdgeStyle;rounded=1;orthogonalLoop=1;jettySize=auto;html=1;curved=0;" edge="1" parent="f07_9i_d-xM3dZHE4S6k-22" source="jq4fsFTrlgq1_qY16uEr-4" target="jq4fsFTrlgq1_qY16uEr-2">
          <mxGeometry relative="1" as="geometry">
            <Array as="points">
              <mxPoint x="820" y="120" />
              <mxPoint x="820" y="200" />
            </Array>
          </mxGeometry>
        </mxCell>
        <mxCell id="jq4fsFTrlgq1_qY16uEr-16" value="Pull image" style="edgeLabel;html=1;align=center;verticalAlign=middle;resizable=0;points=[];" vertex="1" connectable="0" parent="jq4fsFTrlgq1_qY16uEr-12">
          <mxGeometry x="-0.2625" y="-1" relative="1" as="geometry">
            <mxPoint y="27" as="offset" />
          </mxGeometry>
        </mxCell>
        <mxCell id="jq4fsFTrlgq1_qY16uEr-4" value="Elastic Container Service" style="sketch=0;points=[[0,0,0],[0.25,0,0],[0.5,0,0],[0.75,0,0],[1,0,0],[0,1,0],[0.25,1,0],[0.5,1,0],[0.75,1,0],[1,1,0],[0,0.25,0],[0,0.5,0],[0,0.75,0],[1,0.25,0],[1,0.5,0],[1,0.75,0]];outlineConnect=0;fontColor=#232F3E;fillColor=#ED7100;strokeColor=#ffffff;dashed=0;verticalLabelPosition=bottom;verticalAlign=top;align=left;html=1;fontSize=12;fontStyle=0;aspect=fixed;shape=mxgraph.aws4.resourceIcon;resIcon=mxgraph.aws4.ecs;" vertex="1" parent="f07_9i_d-xM3dZHE4S6k-22">
          <mxGeometry x="880.75" y="80" width="80" height="80" as="geometry" />
        </mxCell>
        <mxCell id="jq4fsFTrlgq1_qY16uEr-6" value="Service" style="sketch=0;outlineConnect=0;fontColor=#232F3E;gradientColor=none;fillColor=#ED7100;strokeColor=none;dashed=0;verticalLabelPosition=bottom;verticalAlign=top;align=center;html=1;fontSize=12;fontStyle=0;aspect=fixed;pointerEvents=1;shape=mxgraph.aws4.ecs_service;" vertex="1" parent="f07_9i_d-xM3dZHE4S6k-22">
          <mxGeometry x="1060.75" y="136" width="39" height="48" as="geometry" />
        </mxCell>
        <mxCell id="jq4fsFTrlgq1_qY16uEr-10" value="S3" style="sketch=0;points=[[0,0,0],[0.25,0,0],[0.5,0,0],[0.75,0,0],[1,0,0],[0,1,0],[0.25,1,0],[0.5,1,0],[0.75,1,0],[1,1,0],[0,0.25,0],[0,0.5,0],[0,0.75,0],[1,0.25,0],[1,0.5,0],[1,0.75,0]];outlineConnect=0;fontColor=#232F3E;fillColor=#7AA116;strokeColor=#ffffff;dashed=0;verticalLabelPosition=bottom;verticalAlign=top;align=center;html=1;fontSize=12;fontStyle=0;aspect=fixed;shape=mxgraph.aws4.resourceIcon;resIcon=mxgraph.aws4.s3;" vertex="1" parent="f07_9i_d-xM3dZHE4S6k-22">
          <mxGeometry x="361.25" y="160" width="80" height="80" as="geometry" />
        </mxCell>
        <mxCell id="jq4fsFTrlgq1_qY16uEr-13" style="edgeStyle=orthogonalEdgeStyle;rounded=1;orthogonalLoop=1;jettySize=auto;html=1;entryX=1;entryY=0.5;entryDx=0;entryDy=0;entryPerimeter=0;curved=0;" edge="1" parent="f07_9i_d-xM3dZHE4S6k-22" source="f07_9i_d-xM3dZHE4S6k-12" target="jq4fsFTrlgq1_qY16uEr-10">
          <mxGeometry relative="1" as="geometry">
            <Array as="points">
              <mxPoint x="420" y="420" />
              <mxPoint x="420" y="280" />
              <mxPoint x="500" y="280" />
              <mxPoint x="500" y="200" />
            </Array>
          </mxGeometry>
        </mxCell>
        <mxCell id="jq4fsFTrlgq1_qY16uEr-15" value="Pull artifact" style="edgeLabel;html=1;align=center;verticalAlign=middle;resizable=0;points=[];" vertex="1" connectable="0" parent="jq4fsFTrlgq1_qY16uEr-13">
          <mxGeometry x="0.8066" relative="1" as="geometry">
            <mxPoint x="18" y="40" as="offset" />
          </mxGeometry>
        </mxCell>
        <mxCell id="f07_9i_d-xM3dZHE4S6k-29" style="edgeStyle=orthogonalEdgeStyle;rounded=0;orthogonalLoop=1;jettySize=auto;html=1;" parent="1" target="f07_9i_d-xM3dZHE4S6k-24" edge="1">
          <mxGeometry relative="1" as="geometry">
            <mxPoint x="280" y="520" as="targetPoint" />
            <mxPoint x="120" y="520" as="sourcePoint" />
            <Array as="points">
              <mxPoint x="190" y="520" />
              <mxPoint x="190" y="520" />
            </Array>
          </mxGeometry>
        </mxCell>
        <mxCell id="jq4fsFTrlgq1_qY16uEr-20" style="edgeStyle=orthogonalEdgeStyle;rounded=0;orthogonalLoop=1;jettySize=auto;html=1;" edge="1" parent="1" source="jq4fsFTrlgq1_qY16uEr-19">
          <mxGeometry relative="1" as="geometry">
            <mxPoint x="80" y="480" as="targetPoint" />
          </mxGeometry>
        </mxCell>
        <mxCell id="jq4fsFTrlgq1_qY16uEr-21" value="Merge into&lt;div&gt;prod branch&lt;/div&gt;" style="edgeLabel;html=1;align=center;verticalAlign=middle;resizable=0;points=[];" vertex="1" connectable="0" parent="jq4fsFTrlgq1_qY16uEr-20">
          <mxGeometry x="-0.1833" y="1" relative="1" as="geometry">
            <mxPoint x="-1" y="11" as="offset" />
          </mxGeometry>
        </mxCell>
        <mxCell id="jq4fsFTrlgq1_qY16uEr-19" value="" style="sketch=0;outlineConnect=0;fontColor=#232F3E;gradientColor=none;fillColor=#232F3D;strokeColor=none;dashed=0;verticalLabelPosition=bottom;verticalAlign=top;align=center;html=1;fontSize=12;fontStyle=0;aspect=fixed;pointerEvents=1;shape=mxgraph.aws4.user;" vertex="1" parent="1">
          <mxGeometry x="40" y="280" width="80" height="80" as="geometry" />
        </mxCell>
        <mxCell id="jq4fsFTrlgq1_qY16uEr-22" value="GitHub" style="shape=image;html=1;verticalAlign=top;verticalLabelPosition=bottom;labelBackgroundColor=#ffffff;imageAspect=0;aspect=fixed;image=https://cdn4.iconfinder.com/data/icons/ionicons/512/icon-social-github-128.png" vertex="1" parent="1">
          <mxGeometry x="40" y="480" width="80" height="80" as="geometry" />
        </mxCell>
      </root>
    </mxGraphModel>
  </diagram>
</mxfile>
